#N canvas 95 170 450 475 12;
#X obj 188 298 line~;
#X obj 155 163 delay 500;
#X obj 155 134 t b 1 500;
#X obj 155 256 t b 0 250;
#X obj 155 198 t b 0.5 250;
#X obj 155 228 delay 250;
#X obj 156 105 sel 1;
#X obj 126 41 bng 15 250 50 0 empty empty empty 17 7 0 10 #fcfcfc #000000
#000000;
#X obj 126 61 tgl 15 0 empty empty empty 17 7 0 10 #fcfcfc #000000
#000000 0 1;
#X floatatom 86 107 5 0 0 0 - - -, f 5;
#X obj 129 130 bng 15 250 50 0 empty empty empty 17 7 0 10 #fcfcfc
#000000 #000000;
#X obj 194 39 inlet;
#X obj 299 236 outlet~;
#X obj 184 350 s~ adsr;
#X connect 0 0 12 0;
#X connect 0 0 13 0;
#X connect 1 0 4 0;
#X connect 2 0 1 0;
#X connect 2 1 0 0;
#X connect 2 2 0 1;
#X connect 3 1 0 0;
#X connect 3 2 0 1;
#X connect 4 0 5 0;
#X connect 4 1 0 0;
#X connect 4 2 0 1;
#X connect 5 0 3 0;
#X connect 6 0 2 0;
#X connect 6 0 10 0;
#X connect 7 0 8 0;
#X connect 8 0 6 0;
#X connect 8 0 9 0;
#X connect 11 0 7 0;
