#N canvas 646 25 542 673 12;
#X obj 79 23 inlet;
#X obj 87 183 phasor~;
#X obj 82 245 tabread4~ array1;
#X obj 83 73 unpack 0 0;
#X obj 111 369 outlet~;
#X obj 87 217 *~ 10662;
#X obj 87 100 mtof;
#X obj 205 215 r size;
#X obj 82 155 expr $f1/($f2/(575/9));
#X obj 229 87 r size;
#X floatatom 250 118 5 0 0 0 - - -, f 5;
#X floatatom 28 78 5 0 0 0 - - -, f 5;
#X floatatom 178 74 5 0 0 0 - - -, f 5;
#X floatatom 206 246 5 0 0 0 - - -, f 5;
#X text 18 53 pitch;
#X text 176 44 velocity;
#X obj 83 276 *~;
#X obj 115 324 +~;
#X text 160 10 Wavetable Lookup;
#X connect 0 0 3 0;
#X connect 1 0 5 0;
#X connect 2 0 16 0;
#X connect 3 0 6 0;
#X connect 3 0 11 0;
#X connect 3 1 12 0;
#X connect 3 1 16 1;
#X connect 5 0 2 0;
#X connect 6 0 8 0;
#X connect 7 0 5 1;
#X connect 7 0 13 0;
#X connect 8 0 1 0;
#X connect 9 0 8 1;
#X connect 9 0 10 0;
#X connect 16 0 17 0;
#X connect 17 0 4 0;
