#N canvas 54 25 1147 673 12;
#X text 182 23 keyboard controlled synthesizer;
#X text 219 65 mapping keyboard presses to MIDI values;
#X obj 178 62 key;
#X obj 182 92 sel 97 115 100 102 103 104 106, f 43;
#X floatatom 185 220 5 0 0 0 - - -, f 5;
#X obj 269 169 + 5;
#X obj 221 169 + 3;
#X obj 313 169 + 6;
#X obj 362 172 + 7;
#X obj 409 173 + 10;
#X obj 448 172 + 12;
#X obj 178 168 + 0;
#X obj 679 156 soundfiler;
#X text 318 249 get triggered with note on message;
#N canvas 0 22 450 300 (subpatch) 0;
#X array array1 10212 float 2 black black;
#X coords 0 2 10212 -2 200 140 1;
#X restore 640 396 graph;
#X obj 188 511 output~;
#X obj 181 252 makenote 1 1000, f 18;
#X text 264 279 velocity;
#X text 179 280 pitch;
#X msg 681 110 read -resize Ping.aif array1, f 32;
#X floatatom 680 208 5 0 0 0 - - -, f 5;
#X msg 181 126 60;
#X msg 223 128 60;
#X msg 266 127 60;
#X msg 307 127 60;
#X msg 356 129 60;
#X msg 402 128 60;
#X msg 444 128 60;
#X text 472 128 reference key value.;
#X text 484 151 Here is C.;
#X obj 683 74 loadbang;
#X obj 199 635 pbRateCalculation;
#X text 181 567 click to see how I standardize/normalize the playback
rate so that it will match the midi note pitch that it's intended to
play;
#X obj 271 349 adsr, f 5;
#X text 481 174 scale: C major blues;
#X obj 734 194 s size;
#X obj 337 273 bng 12 250 50 0 empty empty empty 17 7 0 10 #fcfcfc
#000000 #000000;
#X obj 146 268 bng 15 250 50 0 empty empty empty 17 7 0 10 #fcfcfc
#000000 #000000;
#X obj 194 459 *~;
#X obj 184 349 4voicePoly;
#X text 604 293 I am not sure if the "delay effect" is caused by this
wave file that looks like comprising two pieces of waves. So everytime
it's being looked up it produces two separate notes.;
#X text 320 340 Open 4voicePoly to turn on the amplifer, f 26;
#X connect 2 0 3 0;
#X connect 3 0 21 0;
#X connect 3 1 22 0;
#X connect 3 2 23 0;
#X connect 3 3 24 0;
#X connect 3 4 25 0;
#X connect 3 5 26 0;
#X connect 3 6 27 0;
#X connect 4 0 16 0;
#X connect 5 0 4 0;
#X connect 6 0 4 0;
#X connect 7 0 4 0;
#X connect 8 0 4 0;
#X connect 9 0 4 0;
#X connect 10 0 4 0;
#X connect 11 0 4 0;
#X connect 12 0 35 0;
#X connect 12 0 20 0;
#X connect 16 0 33 0;
#X connect 16 0 37 0;
#X connect 16 0 39 0;
#X connect 16 1 36 0;
#X connect 16 1 39 1;
#X connect 19 0 12 0;
#X connect 21 0 11 0;
#X connect 22 0 6 0;
#X connect 23 0 5 0;
#X connect 24 0 7 0;
#X connect 25 0 8 0;
#X connect 26 0 9 0;
#X connect 27 0 10 0;
#X connect 30 0 19 0;
#X connect 33 0 38 1;
#X connect 38 0 15 0;
#X connect 38 0 15 1;
#X connect 39 0 38 0;
