#N canvas 148 23 576 775 12;
#X text 314 124 modulation index;
#X obj 32 154 phasor~;
#X floatatom 32 126 5 0 0 0 - - -, f 5;
#X obj 33 211 +~;
#X floatatom 190 123 5 0 0 0 - - -, f 5;
#X text 187 96 fm;
#X text 25 96 fc;
#X obj 189 182 *~;
#X obj 189 151 osc~;
#X floatatom 259 124 5 0 0 0 - - -, f 5;
#X obj 33 252 cos~;
#X obj 210 287 tabwrite~ phase-out;
#X obj 202 310 tabwrite~ cos-out;
#X msg 202 258 bang;
#X text 249 257 <-- graph them;
#X obj 260 153 / 6.28;
#X text 317 154 devided by 2pi;
#X obj 258 213 line~;
#X obj 258 185 pack 0 50;
#X text 339 197 ramped to avoid;
#X text 340 221 clicks.);
#X text 337 179 (the index is;
#X text 95 407 x(t) = cos(2*pi(fc*t + (I/2*pi)*cos(2*pi*fm*t)));
#X text 77 446 Frequency modulation turns out to be phase modualtion
as the frequency of carrier is a constant while the phase is a sinusoid
signal scaled by modualtion index \, "I".;
#X text 77 512 As I increases \, the resulted bandwidth becomes wider
as energy then is distributed more along the sideband harmonics \,
whcih resulted in variation of timbre.;
#X text 78 579 The fundamental frequency of the resultant sound depneds
on the ratio of fc and fm. Usually \, choose the bigger one to be fc
as the center frequency in the harmonic spectrum. Then the harmonics
generated by FM would be situated at a interval of multiple integer
of fm \, centered at fc.;
#X msg 210 95 110;
#X obj 104 183 * 4;
#X text 78 677 if fc/fm = rational number \, fm is the fundamental
frequency. As the example above \, fc = 4*fm \, and the fundamental
frequency = fm = 110 Hz.;
#X obj 104 153 t b f;
#X floatatom 105 125 5 0 0 0 - - -, f 5;
#X text 103 99 fc/fm;
#X text 188 71 fundamental(pitch);
#X obj 26 324 outlet~;
#X obj 188 37 inlet~;
#X connect 1 0 3 0;
#X connect 2 0 1 0;
#X connect 3 0 10 0;
#X connect 3 0 11 0;
#X connect 4 0 8 0;
#X connect 4 0 27 0;
#X connect 7 0 3 1;
#X connect 8 0 7 0;
#X connect 9 0 15 0;
#X connect 10 0 12 0;
#X connect 10 0 33 0;
#X connect 13 0 11 0;
#X connect 13 0 12 0;
#X connect 15 0 18 0;
#X connect 17 0 7 1;
#X connect 18 0 17 0;
#X connect 26 0 4 0;
#X connect 27 0 2 0;
#X connect 29 0 27 0;
#X connect 29 1 27 1;
#X connect 30 0 29 0;
#X connect 34 0 8 0;
