#N canvas 354 23 790 775 12;
#X floatatom 156 202 5 0 0 0 - - -, f 5;
#X obj 120 383 output~;
#X msg 487 269 \; C 0 12 16 19 23 28;
#N canvas 0 22 450 300 (subpatch) 0;
#X array C 6 float 3 black black;
#A 0 12 16 19 23 28 0;
#X coords 0 28 6 0 200 140 1;
#X restore 483 318 graph;
#X obj 155 228 voice;
#X msg 227 120 Dm;
#X obj 213 229 voice;
#X floatatom 218 204 5 0 0 0 - - -, f 5;
#X msg 182 119 C;
#X msg 485 81 \; Dm 2 14 17 21 28 29;
#N canvas 0 22 450 300 (subpatch) 0;
#X array Dm 6 float 3 black black;
#A 0 29 2.13405 14 17 21 28;
#X coords 0 29 6 0 200 140 1;
#X restore 483 121 graph;
#X obj 303 281 loadbang;
#X text 260 119 choose your chords~;
#X obj 109 162 r r1;
#X obj 260 167 r r2;
#X obj 294 401 s r1;
#X obj 343 397 s r2;
#X obj 305 356 unpack 0 0 0;
#X msg 302 321 0.92 0.97 0.6;
#X obj 391 405 s vol;
#X obj 210 340 r vol;
#X floatatom 227 395 5 0 0 0 - - -, f 5;
#X connect 0 0 4 0;
#X connect 4 0 1 0;
#X connect 4 0 1 1;
#X connect 5 0 6 1;
#X connect 5 0 4 1;
#X connect 6 0 1 0;
#X connect 6 0 1 1;
#X connect 7 0 6 0;
#X connect 8 0 6 1;
#X connect 8 0 4 1;
#X connect 11 0 18 0;
#X connect 13 0 0 0;
#X connect 14 0 7 0;
#X connect 17 0 15 0;
#X connect 17 1 16 0;
#X connect 17 2 19 0;
#X connect 18 0 17 0;
#X connect 20 0 1 2;
#X connect 20 0 21 0;
