#N canvas 767 132 724 560 12;
#X obj 71 255 osc~;
#X obj 67 89 *~ 6;
#X obj 70 216 mtof~;
#X obj 179 39 symbol;
#X obj 69 291 outlet~;
#X obj 67 50 phasor~ 1;
#X obj 55 10 inlet~;
#X msg 200 94 set C;
#X obj 69 143 tabread~ C;
#X obj 70 186 +~ 48;
#X msg 178 66 set \$1;
#X obj 177 11 inlet;
#X obj 200 140 print;
#X connect 0 0 4 0;
#X connect 1 0 8 0;
#X connect 2 0 0 0;
#X connect 3 0 10 0;
#X connect 5 0 1 0;
#X connect 6 0 5 0;
#X connect 7 0 8 0;
#X connect 8 0 9 0;
#X connect 9 0 2 0;
#X connect 10 0 8 0;
#X connect 10 0 12 0;
#X connect 11 0 3 0;
